<?xml version="1.0" standalone="no"?>
<!DOCTYPE svg PUBLIC "-//W3C//DTD SVG 20010904//EN"
 "http://www.w3.org/TR/2001/REC-SVG-20010904/DTD/svg10.dtd">
<svg version="1.0" xmlns="http://www.w3.org/2000/svg"
 width="640.000000pt" height="640.000000pt" viewBox="0 0 640.000000 640.000000"
 preserveAspectRatio="xMidYMid meet">

<g transform="translate(0.000000,640.000000) scale(0.100000,-0.100000)"
fill="#000000" stroke="none">
<path d="M3176 5759 c-108 -37 -844 -223 -1009 -255 -88 -17 -116 -28 -105
-39 4 -4 55 -17 115 -30 59 -13 142 -33 183 -44 41 -12 113 -31 160 -42 188
-47 319 -80 405 -103 50 -14 134 -36 189 -51 65 -18 114 -25 145 -22 44 4 180
37 451 112 69 18 163 41 210 50 47 8 135 28 195 44 174 46 277 64 285 51 11
-18 21 -216 12 -240 -4 -12 -18 -26 -31 -33 -61 -31 -81 -105 -42 -158 22 -29
22 -31 7 -132 -8 -56 -16 -138 -18 -182 -3 -77 -2 -79 22 -86 52 -14 187 -5
206 14 7 7 -15 252 -28 309 -9 42 -8 50 11 74 33 42 29 108 -9 146 -29 29 -30
32 -30 127 0 152 -7 189 -41 207 -16 8 -125 36 -243 64 -281 65 -439 105 -556
140 -106 32 -388 100 -411 99 -8 0 -41 -9 -73 -20z m157 -239 c35 -39 35 -74
-2 -111 -25 -24 -38 -29 -79 -29 -83 0 -125 51 -96 118 28 68 125 80 177 22z"/>
<path d="M2599 5236 c-2 -2 -2 -50 1 -106 5 -99 6 -103 35 -126 138 -110 479
-183 724 -156 196 22 410 95 486 166 l35 33 0 97 c0 53 -1 96 -3 96 -1 0 -34
-9 -72 -20 -39 -11 -109 -29 -156 -40 -47 -11 -99 -24 -115 -31 -28 -11 -201
-60 -257 -73 -31 -7 -97 8 -427 99 -222 60 -245 66 -251 61z"/>
<path d="M2395 4998 c-215 -228 -331 -484 -361 -794 -20 -215 63 -513 202
-721 71 -107 224 -262 320 -325 104 -68 241 -134 306 -148 65 -13 72 -20 235
-239 43 -57 88 -111 101 -119 23 -15 25 -13 89 54 86 89 212 240 225 270 7 15
20 24 33 24 38 0 147 40 234 86 336 177 547 467 622 854 16 80 16 342 0 430
-23 126 -19 118 -60 125 -21 3 -52 15 -69 25 -30 18 -32 24 -32 72 0 29 5 72
10 96 9 39 8 49 -20 100 -42 79 -118 177 -186 242 l-58 55 -7 -30 c-4 -17 -10
-42 -13 -57 -15 -66 -96 -121 -276 -186 -190 -68 -257 -80 -448 -80 -73 1
-136 -3 -140 -7 -4 -3 5 -4 20 0 21 5 27 3 33 -14 7 -22 17 -24 125 -24 76 0
200 14 195 23 -3 4 21 8 54 8 32 0 67 4 77 10 11 5 37 13 59 17 80 14 214 76
244 112 l29 35 23 -24 c13 -14 40 -44 59 -68 19 -24 40 -48 46 -54 24 -24 95
-166 119 -236 45 -133 60 -203 60 -290 -1 -85 -1 -85 -72 -232 -63 -130 -138
-247 -164 -256 -5 -2 -9 -8 -9 -14 0 -13 -30 -42 -37 -35 -3 4 -16 -10 -30
-30 -25 -36 -20 -52 15 -53 6 0 12 -4 12 -9 0 -12 -41 -63 -70 -86 -14 -11
-32 -27 -42 -37 -9 -9 -41 -31 -70 -50 -30 -18 -63 -38 -74 -45 -34 -22 -107
-53 -194 -84 -76 -27 -102 -31 -235 -36 -169 -6 -260 7 -420 59 -151 51 -232
94 -350 187 -38 30 -72 58 -75 61 -3 3 -23 19 -45 36 -55 40 -61 48 -106 143
-63 132 -82 241 -76 436 6 180 23 266 77 385 39 85 118 213 174 280 45 54 96
86 108 67 6 -9 8 -8 8 4 0 9 -9 24 -21 35 -31 28 -49 68 -49 109 0 19 -4 35
-9 35 -5 0 -48 -42 -96 -92z"/>
<path d="M2697 4821 c12 -10 20 -21 16 -24 -9 -10 61 -34 138 -47 41 -8 83
-19 94 -27 25 -17 55 -17 96 2 26 11 29 14 13 15 -11 0 -24 3 -28 7 -3 4 -14
8 -24 9 -9 2 -32 6 -50 9 -17 3 -49 8 -69 11 -20 2 -41 8 -47 13 -6 6 -45 19
-86 30 -71 19 -74 19 -53 2z"/>
<path d="M3638 4153 c17 -2 47 -2 65 0 17 2 3 4 -33 4 -36 0 -50 -2 -32 -4z"/>
<path d="M2600 3600 c-19 -12 66 -12 95 0 15 6 7 9 -30 9 -27 0 -57 -4 -65 -9z"/>
<path d="M2788 3603 c34 -2 88 -2 120 0 31 2 3 3 -63 3 -66 0 -92 -1 -57 -3z"/>
<path d="M2983 3603 c9 -2 25 -2 35 0 9 3 1 5 -18 5 -19 0 -27 -2 -17 -5z"/>
<path d="M3160 3599 c345 -27 703 -26 659 2 -8 5 -180 8 -384 7 -253 -1 -340
-4 -275 -9z"/>
<path d="M4340 3459 c-127 -52 -125 -230 3 -278 42 -16 75 -13 117 10 99 56
104 182 9 251 -30 22 -96 31 -129 17z"/>
</g>
</svg>
